M48
; DRILL file {KiCad (5.1.5)-3} date 18/11/2021 11:10:05
; FORMAT={-:-/ absolute / inch / decimal}
; #@! TF.CreationDate,2021-11-18T11:10:05+01:00
; #@! TF.GenerationSoftware,Kicad,Pcbnew,(5.1.5)-3
; #@! TF.FileFunction,Plated,1,2,PTH
FMAT,2
INCH
T1C0.0157
T2C0.0315
T3C0.0394
T4C0.1181
%
G90
G05
T1
X4.318Y-3.7574
X4.3976Y-3.6843
X4.6337Y-2.5055
X4.8223Y-2.426
X4.9933Y-3.2549
X5.0056Y-2.9399
X5.2928Y-3.6726
X5.392Y-3.3244
X5.5797Y-3.2033
X5.5836Y-2.3782
X5.6896Y-2.435
X5.8169Y-4.4009
X5.9021Y-2.4596
X5.9111Y-4.4086
X6.1534Y-2.3087
X6.3714Y-3.3523
X6.5887Y-3.17
X6.8289Y-4.4156
X7.7285Y-4.1307
X7.8054Y-2.8958
X8.2571Y-3.3196
X8.3824Y-4.4407
T2
X2.5375Y-3.475
X2.5375Y-3.575
X2.5375Y-3.675
X2.5375Y-3.775
X2.5375Y-3.875
X2.5375Y-3.975
X2.5375Y-4.075
X2.5375Y-4.175
X2.5375Y-4.275
X2.5375Y-4.375
X2.8375Y-3.475
X2.8375Y-3.575
X2.8375Y-3.675
X2.8375Y-3.775
X2.8375Y-3.875
X2.8375Y-3.975
X2.8375Y-4.075
X2.8375Y-4.175
X2.8375Y-4.275
X2.8375Y-4.375
X7.9891Y-3.525
X8.0875Y-3.525
X3.2891Y-3.525
X3.3875Y-3.525
X7.4875Y-3.625
X7.5859Y-3.625
X8.1375Y-2.4
X8.2359Y-2.4
X5.1375Y-2.85
X5.1375Y-2.95
X5.1375Y-3.05
X5.1375Y-3.15
X5.1375Y-3.25
X5.1375Y-3.35
X5.1375Y-3.45
X5.1375Y-3.55
X5.1375Y-3.65
X5.1375Y-3.75
X5.1375Y-3.85
X5.1375Y-3.95
X5.1375Y-4.05
X5.1375Y-4.15
X5.7375Y-2.85
X5.7375Y-2.95
X5.7375Y-3.05
X5.7375Y-3.15
X5.7375Y-3.25
X5.7375Y-3.35
X5.7375Y-3.45
X5.7375Y-3.55
X5.7375Y-3.65
X5.7375Y-3.75
X5.7375Y-3.85
X5.7375Y-3.95
X5.7375Y-4.05
X5.7375Y-4.15
X3.8375Y-2.55
X3.8375Y-2.65
X3.8375Y-2.75
X3.8375Y-2.85
X3.8375Y-2.95
X3.8375Y-3.05
X3.8375Y-3.15
X4.1375Y-2.55
X4.1375Y-2.65
X4.1375Y-2.75
X4.1375Y-2.85
X4.1375Y-2.95
X4.1375Y-3.05
X4.1375Y-3.15
X6.8391Y-3.525
X6.9375Y-3.525
X5.3891Y-2.7
X5.4875Y-2.7
X6.7375Y-3.675
X6.7375Y-3.775
X6.7375Y-3.875
X6.7375Y-3.975
X6.7375Y-4.075
X6.7375Y-4.175
X6.7375Y-4.275
X6.7375Y-4.375
X7.0375Y-3.675
X7.0375Y-3.775
X7.0375Y-3.875
X7.0375Y-3.975
X7.0375Y-4.075
X7.0375Y-4.175
X7.0375Y-4.275
X7.0375Y-4.375
X8.0375Y-2.55
X8.0375Y-2.65
X8.0375Y-2.75
X8.0375Y-2.85
X8.0375Y-2.95
X8.0375Y-3.05
X8.0375Y-3.15
X8.0375Y-3.25
X8.3375Y-2.55
X8.3375Y-2.65
X8.3375Y-2.75
X8.3375Y-2.85
X8.3375Y-2.95
X8.3375Y-3.05
X8.3375Y-3.15
X8.3375Y-3.25
X6.0875Y-2.55
X6.0875Y-2.65
X6.0875Y-2.75
X6.0875Y-2.85
X6.0875Y-2.95
X6.0875Y-3.05
X6.0875Y-3.15
X6.3875Y-2.55
X6.3875Y-2.65
X6.3875Y-2.75
X6.3875Y-2.85
X6.3875Y-2.95
X6.3875Y-3.05
X6.3875Y-3.15
X7.3875Y-3.775
X7.3875Y-3.875
X7.3875Y-3.975
X7.3875Y-4.075
X7.3875Y-4.175
X7.3875Y-4.275
X7.3875Y-4.375
X7.6875Y-3.775
X7.6875Y-3.875
X7.6875Y-3.975
X7.6875Y-4.075
X7.6875Y-4.175
X7.6875Y-4.275
X7.6875Y-4.375
X8.0375Y-3.775
X8.0375Y-3.875
X8.0375Y-3.975
X8.0375Y-4.075
X8.0375Y-4.175
X8.0375Y-4.275
X8.0375Y-4.375
X8.3375Y-3.775
X8.3375Y-3.875
X8.3375Y-3.975
X8.3375Y-4.075
X8.3375Y-4.175
X8.3375Y-4.275
X8.3375Y-4.375
X8.6875Y-3.775
X8.6875Y-3.875
X8.6875Y-3.975
X8.6875Y-4.075
X8.6875Y-4.175
X8.6875Y-4.275
X8.6875Y-4.375
X8.9875Y-3.775
X8.9875Y-3.875
X8.9875Y-3.975
X8.9875Y-4.075
X8.9875Y-4.175
X8.9875Y-4.275
X8.9875Y-4.375
X3.8375Y-3.675
X3.8375Y-3.775
X3.8375Y-3.875
X3.8375Y-3.975
X3.8375Y-4.075
X3.8375Y-4.175
X3.8375Y-4.275
X3.8375Y-4.375
X4.1375Y-3.675
X4.1375Y-3.775
X4.1375Y-3.875
X4.1375Y-3.975
X4.1375Y-4.075
X4.1375Y-4.175
X4.1375Y-4.275
X4.1375Y-4.375
X3.9391Y-3.525
X4.0375Y-3.525
X2.6416Y-2.4
X2.7401Y-2.4
X2.0521Y-2.9728
X2.0521Y-3.0614
X2.0521Y-3.15
X2.0521Y-3.2386
X2.0521Y-3.3272
X2.1505Y-3.0171
X2.1505Y-3.1057
X2.1505Y-3.1943
X2.1505Y-3.2829
X2.1505Y-3.3715
X2.2489Y-2.9728
X2.2489Y-3.0614
X2.2489Y-3.15
X2.2489Y-3.2386
X2.2489Y-3.3272
X4.4875Y-3.775
X4.4875Y-3.875
X4.4875Y-3.975
X4.4875Y-4.075
X4.4875Y-4.175
X4.4875Y-4.275
X4.4875Y-4.375
X4.7875Y-3.775
X4.7875Y-3.875
X4.7875Y-3.975
X4.7875Y-4.075
X4.7875Y-4.175
X4.7875Y-4.275
X4.7875Y-4.375
X3.9391Y-2.4
X4.0375Y-2.4
X6.7375Y-2.55
X6.7375Y-2.65
X6.7375Y-2.75
X6.7375Y-2.85
X6.7375Y-2.95
X6.7375Y-3.05
X6.7375Y-3.15
X6.7375Y-3.25
X7.0375Y-2.55
X7.0375Y-2.65
X7.0375Y-2.75
X7.0375Y-2.85
X7.0375Y-2.95
X7.0375Y-3.05
X7.0375Y-3.15
X7.0375Y-3.25
X2.5375Y-2.55
X2.5375Y-2.65
X2.5375Y-2.75
X2.5375Y-2.85
X2.5375Y-2.95
X2.5375Y-3.05
X2.5375Y-3.15
X2.8375Y-2.55
X2.8375Y-2.65
X2.8375Y-2.75
X2.8375Y-2.85
X2.8375Y-2.95
X2.8375Y-3.05
X2.8375Y-3.15
X6.0875Y-3.475
X6.0875Y-3.575
X6.0875Y-3.675
X6.0875Y-3.775
X6.0875Y-3.875
X6.0875Y-3.975
X6.0875Y-4.075
X6.0875Y-4.175
X6.0875Y-4.275
X6.0875Y-4.375
X6.3875Y-3.475
X6.3875Y-3.575
X6.3875Y-3.675
X6.3875Y-3.775
X6.3875Y-3.875
X6.3875Y-3.975
X6.3875Y-4.075
X6.3875Y-4.175
X6.3875Y-4.275
X6.3875Y-4.375
X2.0125Y-3.975
X2.0125Y-4.275
X7.3875Y-2.55
X7.3875Y-2.65
X7.3875Y-2.75
X7.3875Y-2.85
X7.3875Y-2.95
X7.3875Y-3.05
X7.3875Y-3.15
X7.3875Y-3.25
X7.6875Y-2.55
X7.6875Y-2.65
X7.6875Y-2.75
X7.6875Y-2.85
X7.6875Y-2.95
X7.6875Y-3.05
X7.6875Y-3.15
X7.6875Y-3.25
X8.2875Y-3.525
X8.3859Y-3.525
X4.4875Y-2.55
X4.4875Y-2.65
X4.4875Y-2.75
X4.4875Y-2.85
X4.4875Y-2.95
X4.4875Y-3.05
X4.4875Y-3.15
X4.4875Y-3.25
X4.4875Y-3.35
X4.4875Y-3.45
X4.7875Y-2.55
X4.7875Y-2.65
X4.7875Y-2.75
X4.7875Y-2.85
X4.7875Y-2.95
X4.7875Y-3.05
X4.7875Y-3.15
X4.7875Y-3.25
X4.7875Y-3.35
X4.7875Y-3.45
X8.6875Y-2.55
X8.6875Y-2.65
X8.6875Y-2.75
X8.6875Y-2.85
X8.6875Y-2.95
X8.6875Y-3.05
X8.6875Y-3.15
X8.6875Y-3.25
X8.9875Y-2.55
X8.9875Y-2.65
X8.9875Y-2.75
X8.9875Y-2.85
X8.9875Y-2.95
X8.9875Y-3.05
X8.9875Y-3.15
X8.9875Y-3.25
X3.2875Y-2.4
X3.3859Y-2.4
X4.5891Y-2.4
X4.6875Y-2.4
X2.2625Y-3.975
X2.2625Y-4.275
X3.1875Y-3.675
X3.1875Y-3.775
X3.1875Y-3.875
X3.1875Y-3.975
X3.1875Y-4.075
X3.1875Y-4.175
X3.1875Y-4.275
X3.1875Y-4.375
X3.4875Y-3.675
X3.4875Y-3.775
X3.4875Y-3.875
X3.4875Y-3.975
X3.4875Y-4.075
X3.4875Y-4.175
X3.4875Y-4.275
X3.4875Y-4.375
X3.1875Y-2.55
X3.1875Y-2.65
X3.1875Y-2.75
X3.1875Y-2.85
X3.1875Y-2.95
X3.1875Y-3.05
X3.1875Y-3.15
X3.4875Y-2.55
X3.4875Y-2.65
X3.4875Y-2.75
X3.4875Y-2.85
X3.4875Y-2.95
X3.4875Y-3.05
X3.4875Y-3.15
X7.4891Y-2.4
X7.5875Y-2.4
X1.7625Y-3.975
X1.7625Y-4.275
X8.7891Y-3.625
X8.8875Y-3.625
T3
X5.2875Y-2.125
X5.2875Y-2.225
X5.3875Y-2.125
X5.3875Y-2.225
X5.4875Y-2.125
X5.4875Y-2.225
X5.5875Y-2.125
X5.5875Y-2.225
X5.6875Y-2.125
X5.6875Y-2.225
X5.7875Y-2.125
X5.7875Y-2.225
X5.8875Y-2.125
X5.8875Y-2.225
X5.9875Y-2.125
X5.9875Y-2.225
X6.0875Y-2.125
X6.0875Y-2.225
X6.1875Y-2.125
X6.1875Y-2.225
X6.2875Y-2.125
X6.2875Y-2.225
X6.3875Y-2.125
X6.3875Y-2.225
X6.4875Y-2.125
X6.4875Y-2.225
X6.5875Y-2.125
X6.5875Y-2.225
X6.6875Y-2.125
X6.6875Y-2.225
X6.7875Y-2.125
X6.7875Y-2.225
X8.8375Y-2.125
X8.8375Y-2.225
T4
X2.1505Y-2.6598
X2.1505Y-3.6402
T0
M30
